<?xml version="1.0" standalone="no"?><!DOCTYPE svg PUBLIC "-//W3C//DTD SVG 1.1//EN" "http://www.w3.org/Graphics/SVG/1.1/DTD/svg11.dtd"><svg t="1611146722559" class="icon" viewBox="0 0 1024 1024" version="1.1" xmlns="http://www.w3.org/2000/svg" p-id="4772" xmlns:xlink="http://www.w3.org/1999/xlink" width="200" height="200"><defs><style type="text/css"></style></defs><path d="M757.946 204.568h-83.491C662.174 179.136 636.303 162 606.595 162h-189.19c-29.709 0-55.579 17.136-67.861 42.568h-83.491c-36.512 0-66.216 29.709-66.216 66.216v463.514c0 29.94 19.977 55.306 47.297 63.463v9.626c0 30.115 25.459 54.614 56.757 54.614h75.676c31.298 0 56.757-24.499 56.757-54.614v-6.873h151.351v6.873c0 30.115 25.459 54.614 56.757 54.614h75.676c31.298 0 56.757-24.499 56.757-54.614v-9.626c27.321-8.157 47.297-33.524 47.297-63.463V270.784c0-36.508-29.704-66.216-66.216-66.216z m9.459 529.729c0 5.127-4.333 9.459-9.459 9.459h-37.838v61.486l-75.676-0.185v-61.302H379.568v61.486l-75.676-0.185v-61.302h-37.838c-5.127 0-9.459-4.333-9.459-9.459V270.784c0-5.127 4.332-9.459 9.459-9.459h130.165l2.6-25.496c0.979-9.57 9.141-17.071 18.586-17.071h189.189c9.446 0 17.607 7.501 18.586 17.071l2.6 25.496h130.165c5.127 0 9.459 4.333 9.459 9.459v463.513z" p-id="4773"></path><path d="M365.378 332.27h-56.757v189.19h406.757V332.27h-350z m293.244 132.433H365.378v-75.676h293.243v75.676z" p-id="4774"></path><path d="M384.297 644.432m-47.297 0a47.297 47.297 0 1 0 94.594 0 47.297 47.297 0 1 0-94.594 0Z" p-id="4775"></path><path d="M639.703 644.432m-47.297 0a47.297 47.297 0 1 0 94.594 0 47.297 47.297 0 1 0-94.594 0Z" p-id="4776"></path></svg>