<?xml version="1.0" standalone="no"?><!DOCTYPE svg PUBLIC "-//W3C//DTD SVG 1.1//EN" "http://www.w3.org/Graphics/SVG/1.1/DTD/svg11.dtd"><svg t="1611148660736" class="icon" viewBox="0 0 1024 1024" version="1.1" xmlns="http://www.w3.org/2000/svg" p-id="2288" xmlns:xlink="http://www.w3.org/1999/xlink" width="200" height="200"><defs><style type="text/css"></style></defs><path d="M959.7 569.4c-0.1-0.8-0.2-1.7-0.3-2.5-0.2-1.3-0.4-2.6-0.7-3.9-0.2-0.9-0.4-1.7-0.6-2.6-0.2-1-0.5-2-0.8-3-0.3-0.9-0.5-1.7-0.8-2.6-0.4-1.1-0.8-2.1-1.2-3.1-0.5-1.2-1-2.4-1.6-3.6-0.6-1.2-1.2-2.4-1.9-3.6-1.1-2-2.3-3.9-3.6-5.7-0.2-0.3-0.4-0.6-0.7-0.9-1.5-2-3.1-4-4.9-5.8-0.5-0.5-1-1.1-1.6-1.6-2-1.9-4-3.7-6.2-5.4-1.1-0.8-2.2-1.6-3.4-2.4s-2.3-1.5-3.5-2.2c0-2.8 0.1-5.7 0.1-8.5 0-247.4-186.2-448-416-448-17.9 0-35.6 1.2-53 3.6-3.5 0.5-6.9 1-10.4 1.6-1.7 0.3-3.4 0.6-5.2 0.9-5.1 0.9-10.3 1.9-15.3 3.1-6.8 1.5-13.5 3.2-20.1 5-3.3 0.9-6.6 1.9-9.9 2.9-1.6 0.5-3.3 1-4.9 1.5-4.9 1.6-9.8 3.2-14.6 5l-9.6 3.6c-4.8 1.9-9.5 3.9-14.2 5.9-3.1 1.4-6.2 2.8-9.3 4.3-7.7 3.6-15.3 7.5-22.8 11.6-3 1.6-6 3.3-8.9 5.1-5.9 3.4-11.7 7-17.4 10.8-5.7 3.7-11.3 7.6-16.9 11.7-1.4 1-2.8 2-4.1 3-4.1 3.1-8.2 6.2-12.2 9.4s-8 6.5-11.8 9.9c-3.9 3.4-7.7 6.8-11.5 10.3-2.5 2.3-5 4.7-7.5 7.1-3.7 3.6-7.3 7.3-10.9 11.1-3.6 3.8-7.1 7.6-10.5 11.5-2.3 2.6-4.6 5.2-6.8 7.9-4.5 5.3-8.8 10.7-13.1 16.3l-6.3 8.4c-8.2 11.3-16 23-23.2 35.1-1.8 3-3.6 6.1-5.3 9.2-6.1 10.8-11.7 21.9-17 33.2-1.5 3.2-3 6.5-4.4 9.8-3.6 8.2-6.9 16.6-10 25l-3.6 10.2c-2.9 8.6-5.6 17.3-8 26.1-1 3.5-1.9 7.1-2.8 10.6C101 432.1 96 471.4 96 512c0 2.9 0 5.7 0.1 8.5-1.2 0.7-2.4 1.4-3.5 2.2s-2.3 1.6-3.4 2.4c-2.2 1.7-4.3 3.5-6.2 5.4-0.5 0.5-1 1.1-1.6 1.6-1.7 1.8-3.4 3.8-4.9 5.8-0.2 0.3-0.4 0.6-0.7 0.9-1.3 1.8-2.5 3.7-3.6 5.7-0.7 1.2-1.3 2.4-1.9 3.6-0.6 1.2-1.1 2.4-1.6 3.6-0.4 1-0.8 2.1-1.2 3.1-0.3 0.9-0.6 1.7-0.8 2.6-0.3 1-0.6 2-0.8 3-0.2 0.9-0.4 1.7-0.6 2.6-0.3 1.3-0.5 2.6-0.7 3.9-0.1 0.8-0.2 1.6-0.3 2.5-0.2 2.2-0.3 4.4-0.3 6.6 0 3.8 0.3 7.4 0.9 11 0.3 1.8 0.7 3.6 1.2 5.3 0.5 1.7 1 3.4 1.6 5.1 2.1 5.9 5 11.3 8.6 16.3 8.8 12 21.6 20.8 36.4 24.4 1.8 6.8 3.8 13.4 6 20.1 1.5 4.8 3.1 9.5 4.8 14.2 3 8.4 6.2 16.7 9.7 24.9 1.7 4 3.4 7.9 5.2 11.8 2.5 5.5 5.1 10.9 7.8 16.2 1.1 2.2 2.2 4.4 3.4 6.6 2.2 4.3 4.5 8.5 6.9 12.7 2.9 5.1 5.8 10.1 8.9 15 1.5 2.5 3.1 4.9 4.6 7.3 3.1 4.9 6.3 9.7 9.6 14.4 9.1 13.1 18.9 25.5 29.3 37.4 2.7 3.1 5.5 6.3 8.4 9.3 32.8 35.5 71.2 65.2 113.5 87.3 5 2.6 10 5.1 15.1 7.5 28 13.2 57.6 23.1 88.4 29.4 2.8 0.6 5.6 1.1 8.4 1.6 8.5 1.5 17 2.8 25.6 3.8 14.4 1.6 29 2.4 43.7 2.4s29.4-0.8 43.7-2.4c8.6-1 17.2-2.2 25.6-3.8 2.8-0.5 5.6-1.1 8.4-1.6 30.8-6.3 60.4-16.2 88.4-29.4 5.1-2.4 10.1-4.9 15.1-7.5 42.3-22.1 80.7-51.7 113.5-87.3l8.4-9.3c10.4-11.9 20.2-24.4 29.3-37.4 3.3-4.7 6.5-9.5 9.6-14.4 1.6-2.4 3.1-4.9 4.6-7.3 3-4.9 6-9.9 8.9-15 2.4-4.2 4.7-8.4 6.9-12.7 1.2-2.2 2.3-4.4 3.4-6.6 2.7-5.3 5.3-10.7 7.8-16.2 1.8-3.9 3.5-7.8 5.2-11.8 3.4-8.2 6.7-16.4 9.7-24.9 1.7-4.7 3.3-9.4 4.8-14.2 2.1-6.6 4.1-13.3 6-20.1 14.9-3.6 27.7-12.5 36.4-24.4 3.6-4.9 6.5-10.4 8.6-16.3 0.6-1.7 1.1-3.4 1.6-5.1 0.5-1.7 0.8-3.5 1.2-5.3 0.6-3.6 0.9-7.3 0.9-11 0-2.2-0.1-4.4-0.3-6.6zM512 928c-24.3 0-44-19.7-44-44s19.7-44 44-44 44 19.7 44 44-19.7 44-44 44z m58.6-92.3c-1.5-1.9-3.2-3.7-4.9-5.4-2.6-2.6-5.3-5-8.3-7.2-2-1.5-4-2.8-6.1-4.1-4.2-2.5-8.6-4.7-13.3-6.4-2.3-0.9-4.7-1.6-7.1-2.2-6.1-1.6-12.4-2.4-19-2.4s-12.9 0.8-19 2.4c-2.4 0.6-4.8 1.4-7.1 2.2-4.7 1.7-9.1 3.9-13.3 6.4-2.1 1.3-4.1 2.6-6.1 4.1-2.9 2.2-5.7 4.6-8.3 7.2-1.7 1.7-3.4 3.5-4.9 5.4-1.5 1.9-3 3.8-4.4 5.9s-2.6 4.1-3.8 6.3c-1.2 2.2-2.2 4.4-3.2 6.6-1 2.3-1.8 4.6-2.6 7-0.7 2.3-1.3 4.7-1.8 7.2C424.1 852 416 830.9 416 808c0-52.9 43.1-96 96-96s96 43.1 96 96c0 22.9-8.1 44-21.6 60.6-0.5-2.4-1.1-4.8-1.8-7.2-0.7-2.4-1.6-4.7-2.6-7s-2-4.5-3.2-6.6c-1.2-2.2-2.4-4.2-3.8-6.3s-2.8-4-4.4-5.8z m333.1-228.6c-11.3 2.8-20.2 11.5-23.3 22.7-11.6 42.8-29.5 83.1-53.2 119.8-23.2 36.1-51.5 67.9-83.9 94.5-32.7 26.7-68.8 47.5-107.3 61.8-19 7-38.4 12.3-58.1 16 1.1-2 2.2-4 3.2-6.1 29.4-18.9 50.5-49.4 56.9-85.1 18.5-5.2 36.8-11.6 54.6-19.2 8.1-3.4 11.9-12.8 8.5-21-3.4-8.1-12.8-11.9-21-8.5-13.3 5.6-26.9 10.6-40.6 14.8C633.9 731.4 578.9 680 512 680s-121.9 51.4-127.5 116.9c-13.7-4.2-27.3-9.2-40.6-14.8-8.1-3.4-17.5 0.4-21 8.5-3.4 8.1 0.4 17.5 8.5 21 17.9 7.6 36.1 14 54.6 19.2 6.4 35.7 27.5 66.2 56.9 85.1 1 2.1 2 4.1 3.2 6.1-19.7-3.7-39.1-9-58.1-16-38.6-14.2-74.7-35-107.3-61.8-32.4-26.6-60.7-58.4-83.9-94.5-23.6-36.7-41.5-77.1-53.2-119.8-3.1-11.2-12-19.9-23.3-22.7C106 603.6 96 590.8 96 576c0-11.4 6.2-22 16.1-27.7 10.1-5.8 16.2-16.6 16-28.3-0.1-3.1-0.1-5.6-0.1-8 0-56.5 10.3-111.2 30.5-162.7 19.5-49.6 47.3-94.1 82.8-132.3 35.3-38 76.4-67.9 122-88.7C410.4 106.9 460.4 96 512 96s101.6 10.9 148.7 32.3c45.7 20.8 86.7 50.6 122 88.7 35.5 38.2 63.3 82.7 82.8 132.3C885.7 400.8 896 455.5 896 512c0 2.4 0 4.9-0.1 8-0.2 11.6 5.9 22.5 16 28.3 9.9 5.7 16.1 16.3 16.1 27.7 0 14.8-10 27.6-24.3 31.1zM784 576c0 8.8-7.2 16-16 16s-16-7.2-16-16c0-26.5-21.5-48-48-48s-48 21.5-48 48c0 8.8-7.2 16-16 16s-16-7.2-16-16c0-44.1 35.9-80 80-80s80 35.9 80 80zM624.3 304.5c-0.2 22.1-11.1 45.9-29.2 63.6-14.8 14.5-41.2 31.9-82.9 31.9-33.7 0-65.9-12.2-90.8-34.3-23.7-21.1-39.5-49.8-44.6-80.9-5.5-34 2.5-68.8 22.4-97.9 22.6-33 58.8-57.9 107.5-74.2 8.4-2.8 17.4 1.7 20.2 10.1 2.8 8.4-1.7 17.4-10.1 20.2-91.4 30.5-116 90.5-108.5 136.5 7.1 43.9 45 88.3 103.7 88.3 30.8 0 49.9-12.4 60.4-22.7 11.9-11.7 19.4-27.5 19.6-41.1 0.3-28.4-15-48.7-30.2-54-6.7-2.3-13.4-2-20 0.9 1.9 1.6 3.6 3.4 5.2 5.4 7.3 8.9 11.3 20.5 11.2 32.7-0.3 23.2-16.4 46.8-46.5 46.8-8.8 0-16-7.2-16-16s7.2-16 16-16c13.3 0 14.4-11.6 14.5-15.2 0-1.7-0.2-16.5-14.9-16.8h-0.3c-0.3 0-0.6 0-0.9-0.1-0.2 0-0.5 0-0.7-0.1-0.3 0-0.6-0.1-0.9-0.2-0.2 0-0.5-0.1-0.7-0.2-0.3-0.1-0.5-0.1-0.8-0.2-0.2-0.1-0.5-0.1-0.7-0.2-0.2-0.1-0.5-0.2-0.7-0.3-0.3-0.1-0.5-0.2-0.8-0.3l-0.6-0.3c-0.3-0.1-0.5-0.3-0.8-0.4-0.2-0.1-0.4-0.2-0.6-0.4-0.3-0.2-0.5-0.3-0.8-0.5-0.1-0.1-0.2-0.1-0.2-0.2l-0.3-0.3c-0.2-0.2-0.4-0.4-0.7-0.6-0.2-0.2-0.4-0.3-0.6-0.5l-0.5-0.5-0.6-0.6c-0.1-0.2-0.3-0.4-0.4-0.5-0.2-0.2-0.3-0.5-0.5-0.7-0.1-0.2-0.2-0.4-0.4-0.6-0.1-0.2-0.3-0.5-0.4-0.7-0.1-0.2-0.2-0.4-0.3-0.7-0.1-0.2-0.2-0.5-0.3-0.7-0.1-0.3-0.2-0.5-0.3-0.8-0.1-0.2-0.2-0.4-0.2-0.7-0.1-0.3-0.2-0.6-0.2-0.8-0.1-0.2-0.1-0.4-0.2-0.7-0.1-0.3-0.1-0.6-0.1-0.8 0-0.2-0.1-0.5-0.1-0.8 0-0.3 0-0.5-0.1-0.8v-0.9-0.4-0.3c0-0.3 0-0.6 0.1-0.9 0-0.2 0-0.5 0.1-0.7 0-0.3 0.1-0.6 0.1-0.8 0-0.2 0.1-0.5 0.2-0.7 0.1-0.2 0.1-0.5 0.2-0.7 0.1-0.3 0.2-0.5 0.3-0.8 0.1-0.2 0.2-0.4 0.2-0.6 0.1-0.3 0.2-0.6 0.4-0.9 0.1-0.2 0.2-0.3 0.2-0.5 0.2-0.3 0.3-0.7 0.5-1 0.1-0.1 0.1-0.2 0.2-0.3 0.2-0.3 0.5-0.7 0.7-1l0.1-0.1c19.8-25.5 47.2-35.3 73.3-26.2 14.9 5.2 28.3 16.4 37.6 31.5 9.9 15.5 14.7 33.8 14.5 53.2zM400 576c0 8.8-7.2 16-16 16s-16-7.2-16-16c0-26.5-21.5-48-48-48s-48 21.5-48 48c0 8.8-7.2 16-16 16s-16-7.2-16-16c0-44.1 35.9-80 80-80s80 35.9 80 80z" p-id="2289"></path></svg>