<?xml version="1.0" standalone="no"?><!DOCTYPE svg PUBLIC "-//W3C//DTD SVG 1.1//EN" "http://www.w3.org/Graphics/SVG/1.1/DTD/svg11.dtd"><svg t="1611148564874" class="icon" viewBox="0 0 1024 1024" version="1.1" xmlns="http://www.w3.org/2000/svg" p-id="1273" xmlns:xlink="http://www.w3.org/1999/xlink" width="200" height="200"><defs><style type="text/css"></style></defs><path d="M431 144v-32H320V96c0-17.6-14.4-32-32-32h-31.7c-17.6 0-32 14.4-32 32v832c0 17.6 14.4 32 32 32H288c17.6 0 32-14.4 32-32V400h95.8v-32H320v-32h84v-32h-84v-32h84v-32h-84v-32h95.8v-32H320v-32h111zM287.9 928h-31.6l-0.1-0.1V96l0.1-0.1h31.6V928c0.1-0.1 0.1-0.1 0 0zM801 256c0-29.9-20.7-55.1-48.5-62.1V76c0-6.6-5.4-12-12-12h-104c-6.6 0-12 5.4-12 12v117.9c-27.8 7-48.5 32.2-48.5 62.1l-32 672c0 17.6 14.4 32 32 32h225c17.6 0 32-14.4 32-32l-32-672zM656.5 96h64v96h-64V96z m-80.4 832L608 257.5V256c0-8.5 3.3-16.5 9.4-22.6 6.1-6.1 14.1-9.4 22.6-9.4h97c8.5 0 16.5 3.3 22.6 9.4 6.1 6.1 9.4 14.1 9.4 22.6v1.5l28.9 606.2H672v32h127.5L801 928H576.1z m31.9-64.3h32v32h-32v-32z" p-id="1274"></path></svg>