<?xml version="1.0" standalone="no"?><!DOCTYPE svg PUBLIC "-//W3C//DTD SVG 1.1//EN" "http://www.w3.org/Graphics/SVG/1.1/DTD/svg11.dtd"><svg t="1611146741902" class="icon" viewBox="0 0 1024 1024" version="1.1" xmlns="http://www.w3.org/2000/svg" p-id="4924" xmlns:xlink="http://www.w3.org/1999/xlink" width="200" height="200"><defs><style type="text/css"></style></defs><path d="M715.599 327.541H578.216v-66.216H162V687h108.088c12.395 43.609 52.492 75.676 100.02 75.676s87.625-32.067 100.02-75.676H591.71c12.395 43.609 52.492 75.676 100.02 75.676S779.355 730.609 791.75 687H862V486.59L715.599 327.541zM370.108 705.919c-26.078 0-47.297-21.219-47.297-47.297s21.219-47.297 47.297-47.297c26.078 0 47.297 21.219 47.297 47.297s-21.219 47.297-47.297 47.297z m151.351-378.378v302.703h-51.331c-12.395-43.609-52.492-75.676-100.02-75.676s-87.625 32.067-100.02 75.676h-51.331V318.081H521.46v9.46zM691.73 705.919c-26.078 0-47.297-21.219-47.297-47.297s21.219-47.297 47.297-47.297 47.297 21.219 47.297 47.297-21.219 47.297-47.297 47.297z m113.513-75.676H791.75c-12.395-43.609-52.492-75.676-100.02-75.676s-87.625 32.067-100.02 75.676h-13.494V384.297h112.485l114.542 124.438v121.508z" p-id="4925"></path></svg>