<?xml version="1.0" standalone="no"?><!DOCTYPE svg PUBLIC "-//W3C//DTD SVG 1.1//EN" "http://www.w3.org/Graphics/SVG/1.1/DTD/svg11.dtd"><svg t="1611146637196" class="icon" viewBox="0 0 1024 1024" version="1.1" xmlns="http://www.w3.org/2000/svg" p-id="4186" xmlns:xlink="http://www.w3.org/1999/xlink" width="200" height="200"><defs><style type="text/css"></style></defs><path d="M512 162c-192.988 0-350 157.012-350 350s157.012 350 350 350 350-157.012 350-350-157.012-350-350-350z m0 640c-159.907 0-290-130.098-290-290s130.093-290 290-290 290 130.098 290 290-130.093 290-290 290z" p-id="4187"></path><path d="M314.012 512L512 709.998 709.988 512 512 314.002 314.012 512zM512 625.135L398.865 512 512 398.865 625.135 512 512 625.135z" p-id="4188"></path></svg>