<?xml version="1.0" standalone="no"?><!DOCTYPE svg PUBLIC "-//W3C//DTD SVG 1.1//EN" "http://www.w3.org/Graphics/SVG/1.1/DTD/svg11.dtd"><svg t="1611146950105" class="icon" viewBox="0 0 1024 1024" version="1.1" xmlns="http://www.w3.org/2000/svg" p-id="1051" xmlns:xlink="http://www.w3.org/1999/xlink" width="200" height="200"><defs><style type="text/css"></style></defs><path d="M884.056 277.778c-9.926-9.924-23.121-15.39-37.156-15.39h-11.184V241.14c0-10.558-4.112-20.485-11.58-27.954-7.468-7.465-17.394-11.576-27.949-11.576h-88.393c-10.558 0-20.483 4.111-27.953 11.578-7.466 7.466-11.577 17.393-11.577 27.952v21.248h-13.51l-58.096-48.554a52.384 52.384 0 0 0-15.77-9.07 52.384 52.384 0 0 0-17.925-3.153H462.665a52.37 52.37 0 0 0-18.054 3.199 52.36 52.36 0 0 0-15.854 9.205l-57.273 48.374h-50.958v-21.248c0-10.559-4.112-20.485-11.577-27.95-7.465-7.468-17.393-11.58-27.953-11.58h-30.604c-10.558 0-20.484 4.112-27.951 11.578-7.467 7.466-11.579 17.393-11.579 27.952v21.248H177.1c-14.037 0-27.234 5.466-37.159 15.391-9.925 9.925-15.391 23.122-15.391 37.158V769.84c0 14.036 5.466 27.232 15.391 37.158 9.925 9.925 23.122 15.391 37.159 15.391h83.755c2.576 0 5.171-0.19 7.737-0.57a52.877 52.877 0 0 0 7.546-1.7l39.657-12.055c0.59-0.18 1.193-0.315 1.815-0.407a12.447 12.447 0 0 1 1.836-0.137h527.452c14.035 0 27.23-5.466 37.158-15.391 9.925-9.926 15.392-23.122 15.392-37.158V314.938c0.001-14.037-5.466-27.233-15.392-37.16z m-175.792-36.167h87.452v18.56h-87.452v-18.56z m-253.694 2.96a12.506 12.506 0 0 1 3.784-2.196 12.5 12.5 0 0 1 4.311-0.764h100.299c1.462 0 2.9 0.253 4.284 0.755a12.532 12.532 0 0 1 3.764 2.165l21.366 17.857H433.474l21.096-17.817z m-203.708-2.96h29.663v18.56h-29.663v-18.56z m-82.636 64.452a12.469 12.469 0 0 1 8.875-3.675H846.899c3.352 0 6.504 1.306 8.874 3.675a12.47 12.47 0 0 1 3.676 8.874v87.966H653.667c-35.154-38.375-85.647-62.478-141.668-62.478-54.561 0-103.882 22.861-138.893 59.505H164.551v-84.993a12.47 12.47 0 0 1 3.675-8.874z m515.921 325.742c16.649 0 30.194 13.545 30.194 30.193 0 16.649-13.545 30.195-30.194 30.195-16.631 0-30.164-13.514-30.195-30.137a192.907 192.907 0 0 0 21.906-29.104 30.083 30.083 0 0 1 8.289-1.147z m-172.148 52.916c-83.894 0-152.146-68.253-152.146-152.146 0-83.895 68.252-152.148 152.146-152.148 83.895 0 152.148 68.253 152.148 152.148 0 83.893-68.253 152.146-152.148 152.146z m343.775 79.122a12.47 12.47 0 0 1-8.875 3.677H319.447a52.56 52.56 0 0 0-15.283 2.272l-39.66 12.056c-0.592 0.18-1.202 0.317-1.791 0.405-0.61 0.09-1.236 0.136-1.858 0.136H177.1a12.474 12.474 0 0 1-8.875-3.675 12.47 12.47 0 0 1-3.675-8.874V439.931h179.16c-15.194 27.491-23.857 59.073-23.857 92.644 0 105.95 86.197 192.146 192.146 192.146 40.156 0 77.47-12.391 108.333-33.537 11.1 24.173 35.521 41.01 63.815 41.01 38.705 0 70.194-31.489 70.194-70.195 0-35.174-26.007-64.381-59.801-69.419 6.225-18.889 9.606-39.059 9.606-60.005 0-32.368-8.057-62.885-22.252-89.671h177.554v312.067a12.458 12.458 0 0 1-3.674 8.872z" fill="" p-id="1052"></path><path d="M511.999 410.266c-67.44 0-122.308 54.867-122.308 122.309 0 67.44 54.867 122.307 122.308 122.307s122.31-54.866 122.31-122.307c0-67.442-54.869-122.309-122.31-122.309z m0 204.615c-45.385 0-82.308-36.923-82.308-82.307 0-45.385 36.923-82.309 82.308-82.309 45.386 0 82.31 36.923 82.31 82.309 0 45.384-36.924 82.307-82.31 82.307z" fill="" p-id="1053"></path><path d="M250.862 241.611h29.663v18.56h-29.663z" fill="#FFFFFF" p-id="1054"></path><path d="M230.862 370.091h61.357c11.046 0 20-8.954 20-20s-8.954-20-20-20h-61.357c-11.046 0-20 8.954-20 20s8.954 20 20 20zM355.068 370.091h0.631c11.046 0 20-8.954 20-20s-8.954-20-20-20h-0.631c-11.046 0-20 8.954-20 20s8.954 20 20 20z" fill="" p-id="1055"></path></svg>