<?xml version="1.0" standalone="no"?><!DOCTYPE svg PUBLIC "-//W3C//DTD SVG 1.1//EN" "http://www.w3.org/Graphics/SVG/1.1/DTD/svg11.dtd"><svg t="1611148693642" class="icon" viewBox="0 0 1024 1024" version="1.1" xmlns="http://www.w3.org/2000/svg" p-id="2578" xmlns:xlink="http://www.w3.org/1999/xlink" width="200" height="200"><defs><style type="text/css"></style></defs><path d="M452 64H124c-33 0-60 27-60 60v776c0 33 27 60 60 60h328c33 0 60-27 60-60V124c0-33-27-60-60-60z m-347.7 40.3C109.6 99 116.6 96 124 96h328c7.4 0 14.4 2.9 19.7 8.3s8.3 12.3 8.3 19.7v11c-8.4-4.5-17.9-7-28-7H124c-10.1 0-19.6 2.5-28 7v-11c0-7.4 2.9-14.4 8.3-19.7zM480 836.9c0 7.4-2.9 14.4-8.3 19.7-5.3 5.3-12.3 8.3-19.7 8.3H124c-7.4 0-14.4-2.9-19.7-8.3-5.3-5.3-8.3-12.3-8.3-19.7V188c0-7.4 2.9-14.4 8.3-19.7 5.3-5.3 12.3-8.3 19.7-8.3h328c7.4 0 14.4 2.9 19.7 8.3 5.3 5.3 8.3 12.3 8.3 19.7v648.9z m-8.3 82.8c-5.3 5.3-12.3 8.3-19.7 8.3H124c-7.4 0-14.4-2.9-19.7-8.3S96 907.4 96 900v-10c8.4 4.5 17.9 7 28 7h328c10.1 0 19.6-2.5 28-7v10c0 7.4-2.9 14.4-8.3 19.7z m403.9-328c-9.2-8.7-18.1-17-26.9-24.8 38.7-70.3 61.5-138.4 62.5-141.4l7-21H784V336h144v-32H784V192h-32v112H608v32h144v68.5H640v32h233.2C864 460.7 847 502.7 824 545.4c-18.4-15.4-35.6-28.7-51.6-39.7-40.3-27.7-72.5-41.2-98.4-41.2-35.5 0-64.9 12.7-85.2 36.7-18.8 22.2-28.8 53.1-28.8 89.3 0 36.6 9.6 68 27.7 90.7C608 706.6 637.8 720 674 720c54.1 0 107.3-42 158.3-124.9 6.8 6.1 13.8 12.7 21.1 19.6 47.3 44.7 88.4 90 106.6 110.5v-47.7c-21.6-23.4-51.5-54.7-84.4-85.8zM674 688c-76.1 0-82-74.6-82-97.5 0-58.9 30.7-94 82-94 17.3 0 56.2 11 133.9 77.2C774.1 629.6 726.3 688 674 688zM248.3 490.7h-20v20h20v-20zM308 390.5h-20v20h20v-20z m80 100h-20v20h-20v20h60v-40h-20z m-100 100h-20v20h20v-20z m20 20h-20v20h20v-20z m-39.7-140h-20v20h20v-20z m19.7-40.3v-20h-20v60h20v-20h20v-20h-20z m20 40.3v20.8h-20v20h20v19.5h20v-60.2h-20z m-20 60.1v20.1h-20v20h20v19.9h20v-60h-20z m-60-19.9h-20v20h20v-20z m-40-20h-20v40h20v-20h20v-20h-20z m80 20h-20v20h20v-20z m-70-90.2h20v20h-20v-20z m-30-30v80h80.3v-80H168z m60 30v30h-40v-40h40v10z m130 0h20v20h-20v-20z m-30.2-30v80h80.3v-80h-80.3z m60.2 30v30h-40v-40h40v10z m-30 160h20v20h-20v-20z m-30.2-30v80h80.3v-80h-80.3z m60.2 30v30h-40v-40h40v10z m-190 0h20v20h-20v-20z m-30-30v80h80.3v-80H168z m60 30v30h-40v-40h40v10z" p-id="2579"></path></svg>