<?xml version="1.0" standalone="no"?><!DOCTYPE svg PUBLIC "-//W3C//DTD SVG 1.1//EN" "http://www.w3.org/Graphics/SVG/1.1/DTD/svg11.dtd"><svg t="1611148651539" class="icon" viewBox="0 0 1024 1024" version="1.1" xmlns="http://www.w3.org/2000/svg" p-id="2143" xmlns:xlink="http://www.w3.org/1999/xlink" width="200" height="200"><defs><style type="text/css"></style></defs><path d="M578.5 628.2l-22.6-22.6 60.3-60.3 22.6 22.6-60.3 60.3zM528 544h-32v112H384v32h112v112h32V688h112v-32H528V544z m343.7-96.5s0.1 0 0 0c0.4 1.8 0.9 3.6 1.3 5.5 0.7 2.8 1.4 5.7 2.1 8.8 0.5 2 0.9 4.1 1.4 6.1 0.2 1 0.5 2.1 0.7 3.1 0.5 2.1 1 4.2 1.5 6.4 0.2 1.1 0.5 2.2 0.7 3.3l1.5 6.6c1.2 5.5 2.4 11.2 3.6 16.8 0.5 2.5 1.1 5.1 1.6 7.6 1.5 7.5 3 15 4.3 22.1 0.6 3.2 1.1 6.3 1.6 9.3 0.3 2 0.7 4 1 5.9l0.9 5.7c0.1 0.9 0.3 1.8 0.4 2.7 0.2 1.8 0.5 3.5 0.7 5.2s0.4 3.3 0.5 4.9c0.2 1.6 0.3 3 0.4 4.5 0.1 1.4 0.2 2.8 0.2 4 0.1 2.5 0.1 5.2 0.1 8.1 0 1.7 0 3.5-0.1 5.4 0 1.2-0.1 2.5-0.1 3.8 0 1.3-0.1 2.6-0.2 3.9 0 0.7-0.1 1.3-0.1 2-0.2 3.4-0.4 6.9-0.6 10.6-0.2 2.2-0.3 4.4-0.5 6.7-0.3 3.8-0.6 7.7-1 11.8-0.2 2.4-0.5 4.9-0.7 7.3-0.3 2.9-0.6 5.8-0.9 8.8-0.3 3-0.7 6-1 9l-0.9 7.8c-0.2 1.8-0.4 3.5-0.6 5.3-0.5 4.4-1.1 8.9-1.7 13.4-0.5 3.5-0.9 7-1.4 10.5-0.2 1.1-0.3 2.3-0.5 3.4-0.2 1.7-0.5 3.4-0.7 5-0.1 0.9-0.2 1.8-0.4 2.7-0.2 1.8-0.5 3.6-0.8 5.4s-0.5 3.6-0.8 5.4-0.5 3.6-0.8 5.3c-0.1 0.9-0.3 1.8-0.4 2.7-0.3 1.8-0.5 3.5-0.8 5.3-0.4 2.6-0.8 5.3-1.2 7.8-0.1 1-0.3 2-0.4 2.9-0.4 2.4-0.7 4.7-1.1 7 0 0.2-0.1 0.4-0.1 0.7-0.4 2.3-0.7 4.6-1.1 6.9-0.2 1.1-0.3 2.1-0.5 3.2l-1.5 9.3c-0.1 0.9-0.3 1.8-0.4 2.7-0.2 1.5-0.5 2.9-0.7 4.3-0.5 3.1-1 6-1.4 8.9-0.1 0.7-0.2 1.4-0.4 2.2-0.2 1.4-0.5 2.8-0.7 4.2-0.2 1.4-0.5 2.7-0.7 4.1-0.2 1.3-0.4 2.7-0.7 3.9s-0.4 2.6-0.6 3.8c-0.2 1.2-0.4 2.5-0.6 3.6-0.2 1.2-0.4 2.3-0.6 3.5s-0.4 2.2-0.6 3.3c-2.5 15-4.2 24.2-4.2 24.2l64 96c0 17.6-14.4 32-32 32H128c-17.6 0-32-14.4-32-32l64-96s-1.6-9.2-4.2-24.2l-0.6-3.3c-0.2-1.1-0.4-2.3-0.6-3.5l-0.6-3.6c-0.2-1.2-0.4-2.5-0.6-3.8s-0.4-2.6-0.7-3.9c-0.2-1.3-0.4-2.7-0.7-4.1-0.2-1.4-0.5-2.8-0.7-4.2-0.1-0.7-0.2-1.4-0.4-2.2-0.5-2.9-1-5.9-1.4-8.9-0.2-1.4-0.5-2.9-0.7-4.3-0.1-0.9-0.3-1.8-0.4-2.7-0.5-3-1-6.1-1.5-9.3-0.2-1.1-0.3-2.1-0.5-3.2-0.4-2.3-0.7-4.5-1.1-6.9 0-0.2-0.1-0.4-0.1-0.7-0.4-2.3-0.7-4.7-1.1-7-0.1-1-0.3-1.9-0.4-2.9l-1.2-7.8c-0.3-1.8-0.5-3.5-0.8-5.3-0.1-0.9-0.3-1.8-0.4-2.7-0.3-1.8-0.5-3.6-0.8-5.3s-0.5-3.6-0.8-5.4-0.5-3.6-0.8-5.4c-0.1-0.9-0.2-1.8-0.4-2.7-0.2-1.7-0.5-3.4-0.7-5-0.2-1.1-0.3-2.3-0.5-3.4-0.5-3.5-0.9-7-1.4-10.5-0.6-4.5-1.1-8.9-1.7-13.4-0.2-1.8-0.4-3.5-0.6-5.3l-0.9-7.8c-0.3-3-0.7-6-1-9-0.3-3-0.6-5.9-0.9-8.8-0.2-2.5-0.5-4.9-0.7-7.3-0.4-4-0.7-7.9-1-11.8-0.2-2.3-0.4-4.5-0.5-6.7-0.3-3.7-0.5-7.2-0.6-10.6 0-0.7-0.1-1.4-0.1-2-0.1-1.3-0.1-2.6-0.2-3.9 0-1.3-0.1-2.5-0.1-3.8 0-1.9-0.1-3.6-0.1-5.4 0-2.9 0-5.6 0.1-8.1 0-1.3 0.1-2.6 0.2-4s0.2-2.9 0.4-4.5 0.3-3.2 0.5-4.9 0.4-3.4 0.7-5.2c0.1-0.9 0.2-1.8 0.4-2.7 0.3-1.8 0.5-3.7 0.9-5.7 0.3-1.9 0.6-3.9 1-5.9 0.5-3 1.1-6.1 1.6-9.3 1.3-7.1 2.7-14.6 4.3-22.1 0.5-2.5 1-5 1.6-7.6l3.6-16.8 1.5-6.6c0.2-1.1 0.5-2.2 0.7-3.3 0.5-2.2 1-4.3 1.5-6.4 0.2-1.1 0.5-2.1 0.7-3.1 0.5-2.1 1-4.1 1.4-6.1 0.7-3 1.4-5.9 2.1-8.8 0.4-1.9 0.9-3.7 1.3-5.5-31.3-3.8-56-30.9-56-63.5 0 0 1.4-3.3 3.2-7.9l0.9-2.4c0.6-1.7 1.3-3.4 1.9-5.2l0.9-2.7c0.1-0.4 0.3-0.9 0.4-1.3 0.7-2.2 1.3-4.4 1.8-6.4l0.3-1.2c0.2-0.8 0.3-1.5 0.4-2.2 0.2-1 0.2-1.9 0.2-2.7s-0.1-1.7-0.2-2.7c-0.1-0.7-0.2-1.4-0.4-2.2l-0.3-1.2c-0.5-2-1.1-4.2-1.8-6.4-0.1-0.4-0.3-0.9-0.4-1.3l-0.9-2.7c-0.6-1.8-1.3-3.5-1.9-5.2l-0.9-2.4c-1.8-4.6-3.2-7.9-3.2-7.9 0-35.2 28.8-64 64-64h55.4L512 64l296.6 192H864c35.2 0 64 28.8 64 64 0 0-1.4 3.3-3.2 7.9l-0.9 2.4c-0.6 1.7-1.3 3.4-1.9 5.2l-0.9 2.7c-0.1 0.4-0.3 0.9-0.4 1.3-0.7 2.2-1.3 4.4-1.8 6.4l-0.3 1.2c-0.2 0.8-0.3 1.5-0.4 2.2-0.2 1-0.2 1.9-0.2 2.7s0.1 1.7 0.2 2.7c0.1 0.7 0.2 1.4 0.4 2.2l0.3 1.2c0.5 2 1.1 4.2 1.8 6.4 0.1 0.4 0.3 0.9 0.4 1.3l0.9 2.7c0.6 1.8 1.3 3.5 1.9 5.2l0.9 2.4c1.8 4.6 3.2 7.9 3.2 7.9 0 32.6-24.7 59.7-56.3 63.5zM274.3 256h475.4L512 102.1 274.3 256zM864 577.2c-0.9-24.7-15.2-88.6-25.1-129.2H185c-9.8 40.6-24.1 104.4-25.1 129.2-1.8 50.1 22.1 196.8 31.5 249.2 1.5 8.1-0.3 16.5-4.9 23.4l-52 78.2h755.1l-52.2-78.2c-4.6-6.9-6.3-15.3-4.9-23.4 9.4-52.4 33.3-199.2 31.5-249.2zM886 352c0-8.6 3.2-21.1 9.6-37.2-1.1-6.5-4.2-12.5-9-17.3-6.1-6.1-14.1-9.4-22.6-9.4H160c-8.5 0-16.5 3.3-22.6 9.4-4.8 4.8-7.9 10.8-9 17.3 6.4 16.1 9.6 28.6 9.6 37.2s-3.2 21.1-9.6 37.2c1.1 6.5 4.2 12.5 9 17.3 6.1 6.1 14.1 9.4 22.6 9.4h704c8.5 0 16.5-3.3 22.6-9.4 4.8-4.8 7.9-10.8 9-17.3-6.4-16.1-9.6-28.6-9.6-37.2zM560 208h32v-32h-32v32z m48 0v32h32v-32h-32zM468.8 605.5l-60.3-60.3-22.6 22.6 60.3 60.3 22.6-22.6z m87 132.3l60.3 60.3 22.6-22.6-60.3-60.3-22.6 22.6z m-170 37.7l22.6 22.6 60.3-60.3-22.6-22.6-60.3 60.3z" p-id="2144"></path></svg>