<?xml version="1.0" standalone="no"?><!DOCTYPE svg PUBLIC "-//W3C//DTD SVG 1.1//EN" "http://www.w3.org/Graphics/SVG/1.1/DTD/svg11.dtd"><svg t="1611148561150" class="icon" viewBox="0 0 1024 1024" version="1.1" xmlns="http://www.w3.org/2000/svg" p-id="1128" xmlns:xlink="http://www.w3.org/1999/xlink" width="200" height="200"><defs><style type="text/css"></style></defs><path d="M704 592H320v-32h384v32z m64-32h-30v32h30v-32z m-482 0h-30v32h30v-32z m546-456v816c0 22-18 40-40 40H232c-22 0-40-18-40-40V104c0-22 18-40 40-40h560c22 0 40 18 40 40zM224 432h80V266.7c0-14.7 12.6-26.7 28-26.7h40c15.4 0 28 12 28 26.7V501h32V208H224v224z m112-160v169.7l32 34.5V272h-32z m464 192h-88.7l-53.4 57.7c-0.7 0.7-1.4 1.3-2.1 1.9l-4 4.3c-3 3.3-7.3 5.1-11.7 5.1H384c-4.5 0-8.7-1.9-11.7-5.1l-5.5-5.9-57.9-55.4c-0.8-0.8-1.5-1.6-2.2-2.6H224v456c0 4.3 3.7 8 8 8h560c4.3 0 8-3.7 8-8V464z m-304 32V178h-32v318h32z m64 0V272h-32v224h32z m64 0V336h-32v160h32z m64-54.3V272h-32v204.2l32-34.5zM800 208H528v32h36c15.4 0 28 12.6 28 28v36h32v-36c0-15.4 12.6-28 28-28h40c15.4 0 28 12.6 28 28v164h80V208z m0-32v-72c0-4.3-3.7-8-8-8H232c-4.3 0-8 3.7-8 8v72h208v-3.1c0-14.9 12.6-26.9 28-26.9h40c15.4 0 28 12.1 28 26.9v3.1h272z" p-id="1129"></path></svg>