<?xml version="1.0" standalone="no"?><!DOCTYPE svg PUBLIC "-//W3C//DTD SVG 1.1//EN" "http://www.w3.org/Graphics/SVG/1.1/DTD/svg11.dtd"><svg t="1611285540601" class="icon" viewBox="0 0 1024 1024" version="1.1" xmlns="http://www.w3.org/2000/svg" p-id="9292" xmlns:xlink="http://www.w3.org/1999/xlink" width="200" height="200"><defs><style type="text/css"></style></defs><path d="M988.997255 628.027665c36.083281 77.315504 18.772337 206.021793-85.362826 180.889297C797.204972 922.947288 667.558998 1016.593373 456.491993 997.935954 288.087078 983.049478 145.235688 878.243113 70.325329 743.878376c-84.881797-152.249254-77.671446-359.317515 10.162629-504.050308C155.777648 115.766302 305.547518-0.001017 491.04371-0.001017c181.776099 0 311.245119 72.456399 400.394141 180.889297C976.604401 284.474276 1039.194111 447.814656 988.997255 628.027665zM840.627759 186.985043C761.42475 102.53241 642.71939 30.960779 472.752402 42.680396c-166.878436 11.507069-288.281829 106.496578-359.745661 225.602625C75.050193 331.542918 50.440422 411.979517 50.000072 493.886663 48.610884 752.38537 235.328463 929.561692 454.460078 955.254542c191.233964 22.423276 314.282822-63.221252 408.524854-166.66182-30.877387-39.259293-23.303976-112.801821-30.486869-182.921212-2.896344-28.269864-23.284654-113.610316-2.032933-123.980407 23.815514-11.62097 68.264429 27.685103 85.362826 42.681413 16.942799 14.860035 30.133978 38.401983 44.714345 46.746261C980.876712 398.554434 923.573236 275.430319 840.627759 186.985043zM879.244324 646.321006c4.24892 58.071292-8.607674 119.10198 38.616565 123.980407 74.24119 7.666973 44.614682-105.594521 22.357173-148.370512-18.527246-35.60632-55.099691-73.397101-73.168282-77.23313C871.303785 567.810557 876.315437 606.283728 879.244324 646.321006zM310.15543 252.023629c25.508777-1.801062 54.237297 2.110223 83.33091 16.259392 19.34591 9.40905 52.712852 26.928474 50.811109 46.746261-3.720094 38.793518-43.254987 3.691618-56.908889-4.064848-33.898819-19.259468-87.071343-23.70263-126.012323-4.064848-14.742066 7.434085-55.32546 44.998081-65.038585 14.227477-9.943979-31.50486 57.772301-59.390308 77.23313-65.038585C285.907702 252.507709 296.817807 252.965347 310.15543 252.023629zM684.127551 252.023629c10.646709-0.751544 38.726398-1.211217 56.908889 4.064848 31.594354 9.170061 86.078776 37.016864 77.23313 65.038585-9.720245 30.793995-47.796796-6.348973-63.00667-14.227477-37.218225-19.279807-90.44058-15.53734-126.011306 4.064848-18.206899 10.032456-53.496939 39.433195-58.941822 6.097781-3.602125-22.057165 26.535922-35.971413 42.68243-44.714345C636.916533 259.392628 654.285444 254.129783 684.127551 252.023629zM275.603714 355.678779c44.193654-1.158334 3.535004 71.770958-4.064848 99.590302-20.062878 73.43778-5.300472 155.567643-79.266062 168.694753C130.967532 634.845464 79.469965 583.526884 92.682501 514.210903c15.294283-80.23829 105.142984-136.687507 178.856364-158.532124C272.678894 355.341143 274.406734 355.710305 275.603714 355.678779zM133.330982 552.827468c3.155673 14.255952 18.580128 30.373985 40.649497 30.487886 39.450484 0.200344 39.19624-30.021094 42.681413-69.10445 3.371271-37.80807 20.943578-87.685596 20.32424-99.590302C197.707516 436.013681 118.760785 486.996659 133.330982 552.827468zM263.408152 703.229896c-10.815526-39.447433 6.314396-79.781668 20.32424-111.784846 36.733128-83.910586 98.880454-148.978663 211.376165-154.467276 142.289004-6.942887 224.937524 89.010714 254.057578 207.3103 4.405535 17.898755 13.055922 46.190993 4.064848 56.908889-14.24985 16.987546-89.281229-3.408899-117.882627-6.096764-45.50962-4.276379-86.206915-7.713753-126.012323-8.129696C415.920803 685.992174 339.897873 706.872699 263.408152 703.229896zM482.914014 479.659186c-105.730796 9.304302-154.306594 87.567627-178.856364 182.921212 123.620398-21.177482 282.870507-21.177482 406.492939 0C684.221113 553.13256 619.371684 467.650749 482.914014 479.659186z" p-id="9293"></path></svg>