<?xml version="1.0" standalone="no"?><!DOCTYPE svg PUBLIC "-//W3C//DTD SVG 1.1//EN" "http://www.w3.org/Graphics/SVG/1.1/DTD/svg11.dtd"><svg t="1610528245884" class="icon" viewBox="0 0 1024 1024" version="1.1" xmlns="http://www.w3.org/2000/svg" p-id="15625" xmlns:xlink="http://www.w3.org/1999/xlink" width="200" height="200"><defs><style type="text/css"></style></defs><path d="M967.740976 775.741576l-191.9994 191.9994a191.892734 191.892734 0 0 1-271.487152 0l-319.999-319.999A191.316735 191.316735 0 0 1 127.9996 511.9984V127.9996h191.9994c0-35.32789-28.67191-63.9998-63.9998-63.9998H127.9996C92.67171 63.9998 63.9998 92.67171 63.9998 127.9996v95.9997a31.9999 31.9999 0 0 1-63.9998 0V127.9996c0-70.655779 57.343821-127.9996 127.9996-127.9996h127.9996c70.655779 0 127.9996 57.343821 127.9996 127.9996h127.9996c49.151846 0 98.239693 18.751941 135.743576 56.255824l319.999 319.999a191.892734 191.892734 0 0 1 0 271.487152zM383.9988 262.46318V351.9989a31.9999 31.9999 0 0 1-63.9998 0v-89.53572c-37.119884 13.311958-63.9998 47.87185-63.9998 89.53572 0 53.055834 42.943866 95.9997 95.9997 95.9997s95.9997-42.943866 95.9997-95.9997c0-41.66387-26.879916-76.223762-63.9998-89.53572z m493.246459 332.286961l-319.999-319.999A63.829134 63.829134 0 0 0 511.9984 255.9992h-32.703898C499.518439 282.815116 511.9984 315.839013 511.9984 351.9989c0 88.383724-71.615776 159.9995-159.9995 159.9995-36.159887 0-69.183784-12.479961-95.9997-32.703898V511.9984c0 16.383949 6.27198 32.767898 18.751941 45.247859l319.999 319.999a63.9358 63.9358 0 0 0 90.495718 0l191.9994-191.9994a63.9358 63.9358 0 0 0 0-90.495718z" p-id="15626"></path></svg>