<?xml version="1.0" standalone="no"?><!DOCTYPE svg PUBLIC "-//W3C//DTD SVG 1.1//EN" "http://www.w3.org/Graphics/SVG/1.1/DTD/svg11.dtd"><svg t="1610528250458" class="icon" viewBox="0 0 1024 1024" version="1.1" xmlns="http://www.w3.org/2000/svg" p-id="15769" xmlns:xlink="http://www.w3.org/1999/xlink" width="200" height="200"><defs><style type="text/css"></style></defs><path d="M239.616 822.784c-2.56 0-5.12-0.512-8.704-2.048-9.728-3.584-14.848-14.336-11.264-24.064 19.968-59.904 81.408-205.824 89.088-221.184 148.48-296.448 305.664-431.104 561.152-480.256 7.68-1.536 15.36 2.048 19.456 8.704 4.096 6.656 3.584 14.848-1.024 21.504L767.488 286.72c-6.656 8.704-8.704 20.48-6.144 31.232l16.384 60.928c5.632 20.48 2.048 42.496-10.24 60.416-11.776 17.92-30.72 29.696-52.224 32.256l-83.968 10.24c-14.848 2.048-27.136 12.8-30.72 27.136 5.632 31.232-9.216 62.464-36.864 75.776-14.336 6.656-29.696 9.216-45.056 6.144l-74.752-13.312c-11.264-2.048-23.04 2.048-30.72 10.752L286.72 731.136c-2.56 6.656-15.36 39.424-22.528 57.344-2.56 6.656-5.12 12.8-7.168 17.408-0.512 1.024-1.024 2.048-1.024 3.584h-0.512c-4.608 8.704-9.216 13.312-15.872 13.312zM827.904 143.36C611.84 197.632 477.184 324.096 343.04 592.384c-2.048 4.096-7.68 17.408-15.36 35.84L385.024 563.2c16.384-18.432 41.472-27.136 65.536-23.04l74.752 13.312c7.68 1.536 15.36 0.512 22.016-3.072 12.8-6.144 19.456-22.016 15.872-36.864-0.512-2.56-0.512-5.12-0.512-7.168 5.12-32.256 31.232-57.856 64-61.952l83.968-10.24c10.24-1.536 19.456-7.168 25.6-15.872 5.632-8.704 7.68-19.456 5.12-29.696L724.992 327.68c-6.144-22.016-1.536-45.056 12.288-63.488L827.904 143.36z m-501.76 440.32z m109.568 357.376c-32.768 0-49.664-20.48-61.952-35.328-11.776-14.336-18.944-21.504-32.768-21.504-14.336 0-20.992 7.168-32.768 21.504-12.288 14.848-29.184 35.328-61.952 35.328s-49.664-20.48-61.952-35.328c-11.776-14.336-18.944-21.504-32.768-21.504-10.24 0-18.944-8.704-18.944-18.944s8.704-18.944 18.944-18.944c32.768 0 49.664 20.48 61.952 35.328 11.776 14.336 18.944 21.504 32.768 21.504 14.336 0 20.992-7.168 32.768-21.504 12.288-14.848 29.184-35.328 61.952-35.328s49.664 20.48 61.952 35.328c11.776 14.336 18.944 21.504 32.768 21.504 10.24 0 18.944 8.704 18.944 18.944s-8.192 18.944-18.944 18.944z" fill="#363F4D" p-id="15770"></path></svg>