<?xml version="1.0" standalone="no"?><!DOCTYPE svg PUBLIC "-//W3C//DTD SVG 1.1//EN" "http://www.w3.org/Graphics/SVG/1.1/DTD/svg11.dtd"><svg t="1610528254020" class="icon" viewBox="0 0 1024 1024" version="1.1" xmlns="http://www.w3.org/2000/svg" p-id="15913" xmlns:xlink="http://www.w3.org/1999/xlink" width="200" height="200"><defs><style type="text/css"></style></defs><path d="M100.864 931.328c-21.504 0-39.424-16.896-39.424-37.376V125.44c0-20.48 17.92-37.376 39.424-37.376s39.424 16.896 39.424 37.376v730.624h782.848c21.504 0 39.424 16.896 39.424 37.376s-17.92 37.376-39.424 37.376H100.864z" fill="#222222" p-id="15914"></path><path d="M305.152 799.232c-25.6 0-46.08-20.48-46.08-46.08V512c0-25.6 20.48-46.08 46.08-46.08s46.08 20.48 46.08 46.08v241.152c0 25.6-20.48 46.08-46.08 46.08z m242.176 0c-25.6 0-46.08-20.48-46.08-46.08V216.576c0-25.6 20.48-46.08 46.08-46.08s46.08 20.48 46.08 46.08V752.64c0 26.112-20.48 46.592-46.08 46.592z m246.272 0c-25.6 0-46.08-20.48-46.08-46.08V378.88c0-25.6 20.48-46.08 46.08-46.08s46.08 20.48 46.08 46.08v374.272c0 25.6-20.48 46.08-46.08 46.08z" fill="#222222" p-id="15915"></path></svg>