<?xml version="1.0" standalone="no"?><!DOCTYPE svg PUBLIC "-//W3C//DTD SVG 1.1//EN" "http://www.w3.org/Graphics/SVG/1.1/DTD/svg11.dtd"><svg t="1611148632505" class="icon" viewBox="0 0 1024 1024" version="1.1" xmlns="http://www.w3.org/2000/svg" p-id="1998" xmlns:xlink="http://www.w3.org/1999/xlink" width="200" height="200"><defs><style type="text/css"></style></defs><path d="M864 64H608c-17.6 0-32 14.4-32 32v512c0 17.6 14.4 32 32 32h160v308c0 6.6 5.4 12 12 12h104c6.6 0 12-5.4 12-12V96c0-17.6-14.4-32-32-32zM608.1 608c-0.1 0-0.1 0 0 0L608 96.1l0.1-0.1H864l0.1 0.1V608l-0.1 0.1-255.9-0.1zM864 928h-64V640h64v288z m-16-544h-32V192h32v192z m0-223.9h-32v-32h32v32z m-532.7-8.5c-6.6-2-13.4-3.1-20.4-3.1v-32c10.2 0 20.3 1.5 29.9 4.5l-9.5 30.6z m24.3-24.6l-14.2 28.7c23.5 11.7 38.1 35.2 38.1 61.5h32c0-38.5-21.5-73.1-55.9-90.2zM303 383.3V704h36c0.4 0 0.8 0 1.2 0.1 1.2 0.1 2.4 0.4 3.4 0.9 0.7 0.3 1.4 0.7 2 1.1 0.6 0.4 1.2 0.9 1.7 1.4 0 0 0.1 0 0.1 0.1s0 0.1 0.1 0.1c0.5 0.5 1 1.1 1.4 1.7 0.4 0.6 0.8 1.3 1.1 2 0.5 1.1 0.8 2.2 0.9 3.4 0 0.4 0.1 0.8 0.1 1.2v232c0 2.9-1 5.5-2.7 7.6-0.7 0.9-1.6 1.7-2.6 2.3-0.6 0.4-1.3 0.8-2 1.1-1.1 0.5-2.2 0.8-3.4 0.9-0.4 0-0.8 0.1-1.2 0.1H235c-6.6 0-12-5.4-12-12V716c0-0.4 0-0.8 0.1-1.2 0.1-1.2 0.4-2.4 0.9-3.4 0.3-0.7 0.7-1.4 1.1-2 0.6-1 1.4-1.8 2.3-2.6 2.1-1.7 4.7-2.7 7.6-2.7h36v-321c-80.4-8.5-143-76.5-143-159.1 0-88.4 71.6-160 160-160s160 71.6 160 160c0 83.3-63.7 151.7-145 159.3z m-105.5-68.8c24.2 24.2 56.3 37.5 90.5 37.5s66.3-13.3 90.5-37.5c24.2-24.2 37.5-56.3 37.5-90.5s-13.3-66.3-37.5-90.5C354.3 109.3 322.2 96 288 96s-66.3 13.3-90.5 37.5C173.3 157.7 160 189.8 160 224s13.3 66.3 37.5 90.5zM255 736v192h64V736h-64z" p-id="1999"></path></svg>