<?xml version="1.0" standalone="no"?><!DOCTYPE svg PUBLIC "-//W3C//DTD SVG 1.1//EN" "http://www.w3.org/Graphics/SVG/1.1/DTD/svg11.dtd"><svg t="1611146656028" class="icon" viewBox="0 0 1024 1024" version="1.1" xmlns="http://www.w3.org/2000/svg" p-id="4334" xmlns:xlink="http://www.w3.org/1999/xlink" width="200" height="200"><defs><style type="text/css"></style></defs><path d="M861.185 535.801c1.362-20.174 1.026-40.435-1.08-60.557-8.063-77.075-41.503-151.971-100.441-210.909s-133.833-92.378-210.909-100.441c-20.121-2.106-40.383-2.442-60.557-1.08-81.6 5.511-161.627 39.285-223.863 101.521s-96.01 142.264-101.521 223.863c-1.362 20.174-1.026 40.435 1.08 60.557 8.063 77.076 41.503 151.971 100.441 210.909s133.833 92.378 210.909 100.441c20.121 2.106 40.383 2.442 60.557 1.08 81.6-5.511 161.627-39.285 223.863-101.521s96.01-142.263 101.521-223.863zM737.303 694.846l-96.8-96.8c47.024-38.2 103.293-59.482 160.644-63.844-4.362 57.352-25.644 113.62-63.844 160.644z m-139.45-139.449L554.457 512l182.761-182.761c34.709 42.736 55.564 93.045 62.33 144.925-72.22 4.878-143.183 31.94-201.695 81.233z m96.908-268.615L512 469.543l-43.397-43.397c49.292-58.511 76.354-129.475 81.232-201.695 51.881 6.767 102.191 27.622 144.926 62.331z m-204.964-63.929c-4.361 57.351-25.643 113.62-63.844 160.644l-96.8-96.8c47.025-38.2 103.293-59.482 160.644-63.844z m-203.1 106.301l96.8 96.8c-47.024 38.2-103.293 59.482-160.644 63.844 4.362-57.352 25.644-113.62 63.844-160.644z m139.45 139.449L469.543 512 286.782 694.761c-34.709-42.736-55.564-93.045-62.33-144.925 72.22-4.878 143.183-31.94 201.695-81.233z m-96.908 268.615L512 554.457l43.397 43.397c-49.292 58.511-76.354 129.475-81.232 201.695-51.881-6.767-102.191-27.622-144.926-62.331z m204.964 63.929c4.361-57.351 25.643-113.62 63.844-160.644l96.8 96.8c-47.025 38.2-103.293 59.482-160.644 63.844z" p-id="4335"></path></svg>