<?xml version="1.0" standalone="no"?><!DOCTYPE svg PUBLIC "-//W3C//DTD SVG 1.1//EN" "http://www.w3.org/Graphics/SVG/1.1/DTD/svg11.dtd"><svg t="1611148601497" class="icon" viewBox="0 0 1024 1024" version="1.1" xmlns="http://www.w3.org/2000/svg" p-id="1418" xmlns:xlink="http://www.w3.org/1999/xlink" width="200" height="200"><defs><style type="text/css"></style></defs><path d="M448.6 258.5V224c0-17.6-14.4-32-32-32h-48.3V96h44l124.6 62.3 14.3-28.6L419.8 64H160v32h80.3v96H192c-1.7 0-3.3 0.1-4.9 0.4-2.1 0.3-4.2 0.9-6.1 1.6l-1.5 0.6c-1.9 0.8-3.7 1.8-5.4 3-0.4 0.3-0.8 0.6-1.3 0.9-1.6 1.2-3.2 2.6-4.5 4.1-0.3 0.4-0.7 0.8-1 1.2-1.3 1.6-2.5 3.3-3.5 5.1-2.5 4.5-3.9 9.7-3.9 15.2v34.5C105.3 269.7 64 318.3 64 376.1V880c0 44 36 80 80 80h320.5c44 0 80-36 80-80V376.1c0-57.8-41.3-106.4-95.9-117.6zM336.3 96v96h-64V96h64zM191.9 224.1s0-0.1 0 0l224.6-0.1 0.1 0.1V256H191.9v-31.9z m320.6 176V880c0 12.7-5 24.8-14.1 33.9-9.1 9.1-21.1 14.1-33.9 14.1H144c-12.7 0-24.8-5-33.9-14.1C101 904.8 96 892.7 96 880V376.1c0-23.4 9.2-45.4 25.9-62.1 16.7-16.7 38.7-25.9 62.1-25.9h240.5c23.4 0 45.4 9.2 62.1 25.9 14.8 14.8 23.7 33.8 25.5 54.1H384v32h128.5z m-160.5 0h-32v-32h32v32z m538-48c10.6 0 20.5 3.7 27.8 10.4 5.9 5.4 9.4 12.2 10.1 19.3C923 408.9 893 577.6 893 640.1s30 231.1 34.9 258.2c-0.6 7.1-4.1 13.9-10.1 19.3-7.3 6.7-17.2 10.4-27.8 10.4H680c-10.6 0-20.5-3.7-27.8-10.4-5.9-5.4-9.4-12.2-10.1-19.3C647 871.2 677 702.6 677 640.1s-30-231.2-34.9-258.4c0.6-7.1 4.1-13.9 10.1-19.3 7.3-6.7 17.2-10.4 27.8-10.4h210m0-32H680c-38.5 0-70 28.8-70 64 0 0 35 191.5 35 256s-35 255.9-35 255.9c0 35.2 31.5 64 70 64h210c38.5 0 70-28.8 70-64 0 0-35-191.4-35-255.9s35-256 35-256c0-35.1-31.5-64-70-64z m-73.1 160.1c0.1 0 0.1 0 0 0l0.1 320-0.1 0.1H753l-0.1-0.1V480.2l0.1-0.1h63.9m0.1-32h-64c-17.6 0-32 14.4-32 32v320.1c0 17.6 14.4 32 32 32h64c17.6 0 32-14.4 32-32V480.1c0-17.6-14.4-32-32-32z" p-id="1419"></path></svg>