<?xml version="1.0" standalone="no"?><!DOCTYPE svg PUBLIC "-//W3C//DTD SVG 1.1//EN" "http://www.w3.org/Graphics/SVG/1.1/DTD/svg11.dtd"><svg t="1611146804371" class="icon" viewBox="0 0 1024 1024" version="1.1" xmlns="http://www.w3.org/2000/svg" p-id="5362" xmlns:xlink="http://www.w3.org/1999/xlink" width="200" height="200"><defs><style type="text/css"></style></defs><path d="M774.5 321.5H650.993c5.212-2.905 10.097-6.138 14.128-10.168 34.118-34.118 34.113-89.632 0-123.745-34.116-34.113-89.627-34.118-123.745 0-23.43 23.432-26.266 69.2-27.092 110.268-0.031 1.662-0.055 3.157-0.083 4.439l-2.2 5.469-2.2-5.469c-0.031-1.282-0.055-2.777-0.085-4.439-0.826-41.068-3.662-86.835-27.092-110.268-34.118-34.118-89.629-34.113-123.742 0-34.116 34.113-34.118 89.627 0 123.745 4.028 4.03 8.913 7.263 14.125 10.168H249.5c-48.246 0-87.5 39.25-87.5 87.5 0 44.961 34.095 82.069 77.778 86.926V862h544.444V495.926C827.904 491.069 862 453.961 862 409c0-48.25-39.254-87.5-87.5-87.5z m-191.795-92.746c11.381-11.294 29.822-11.265 41.168 0.081 11.372 11.374 11.372 29.874 0 41.248-3.297 2.772-14.41 7.42-50.574 9.323 1.9-36.002 6.524-47.196 9.406-50.652z m-182.579 0.081c11.346-11.346 29.786-11.374 41.168-0.081 2.882 3.456 7.508 14.65 9.407 50.652-36.162-1.904-47.277-6.551-50.574-9.323-11.373-11.374-11.373-29.874-0.001-41.248zM249.5 438.167c-16.083 0-29.167-13.083-29.167-29.167 0-16.083 13.083-29.167 29.167-29.167h179.861v58.333H249.5z m476.389 365.5H298.111V496.5h131.25v307.164h58.333V379.834h48.611v423.83h58.333V496.5h131.25v307.167z m48.611-365.5H594.639v-58.333H774.5c16.083 0 29.167 13.083 29.167 29.167 0 16.083-13.083 29.166-29.167 29.166z" p-id="5363"></path></svg>