<?xml version="1.0" standalone="no"?><!DOCTYPE svg PUBLIC "-//W3C//DTD SVG 1.1//EN" "http://www.w3.org/Graphics/SVG/1.1/DTD/svg11.dtd"><svg t="1611146677155" class="icon" viewBox="0 0 1024 1024" version="1.1" xmlns="http://www.w3.org/2000/svg" p-id="4479" xmlns:xlink="http://www.w3.org/1999/xlink" width="200" height="200"><defs><style type="text/css"></style></defs><path d="M862 582l-60-420H222l-60 420h126.423L272 862h480l-16.423-280H862zM607.389 222c-12.773 40.527-50.697 70-95.389 70s-82.615-29.473-95.389-70h190.778z m119.693 230h-58.755L692 802H332l23.674-350h-58.755l-5.097 70H232l40-300h82.919c14.094 73.918 79.12 130 157.081 130s142.987-56.082 157.081-130H752l40 300h-59.821l-5.097-70z" p-id="4480"></path><path d="M427 472h55v100h60V472h55v-60H427z" p-id="4481"></path></svg>