<?xml version="1.0" standalone="no"?><!DOCTYPE svg PUBLIC "-//W3C//DTD SVG 1.1//EN" "http://www.w3.org/Graphics/SVG/1.1/DTD/svg11.dtd"><svg t="1611146768422" class="icon" viewBox="0 0 1024 1024" version="1.1" xmlns="http://www.w3.org/2000/svg" p-id="5069" xmlns:xlink="http://www.w3.org/1999/xlink" width="200" height="200"><defs><style type="text/css"></style></defs><path d="M795.784 502.541l-5.821-37.838-13.098-85.135h-53.118l-13.098-85.135h-189.19v-36.168l104.054-48.967L597.135 162l-75.676 37.838-56.757 28.378v66.216H313.35l-13.098 85.135h-53.118l-13.098 85.135-5.821 37.838v18.919h92.332l18.508 283.784L342.757 862h338.486l3.701-56.757 18.508-283.784h92.333v-18.918zM361.376 351.189h301.248l4.366 28.378H357.01l4.366-28.378z m266.811 454.054H395.813l-18.508-283.784h269.389l-18.507 283.784z m-337.393-340.54l4.366-28.378h433.68l4.366 28.378H290.794z" p-id="5070"></path></svg>